<?xml version="1.0" encoding="UTF-8"?>
<svg width="752pt" height="752pt" version="1.1" viewBox="0 0 752 752" xmlns="http://www.w3.org/2000/svg">
 <path d="m376 259.55c-69.84 0-128.46 46.352-128.46 106.01v0.011719c0.011719 7.9727 1.1094 15.914 3.2617 23.66v-0.003906c1.3047 4.707 5.8945 7.7148 10.734 7.0391 37.852-5.3125 76.078-8.0117 114.37-8.3711 7.7617-0.035157 15.508 0.019531 23.234 0.20312h-0.003906 0.023438c30.621 0.66406 61.168 3.2031 91.523 7.4688 4.875 0.6875 9.4961-2.375 10.766-7.1328 2.0039-7.5 3.0234-15.18 3.0234-22.879 0-59.66-58.625-106.01-128.46-106.01zm0 19.477c61.301 0 108.99 39.855 108.99 86.531 0 3.2461-0.27734 6.4844-0.74219 9.7109-28.09-3.6289-56.328-6.0234-84.672-6.6367l0.019531 0.003907c-7.957-0.19141-15.898-0.25-23.824-0.21484h-0.046875c-36.047 0.33984-72.074 2.8125-107.85 7.4453-0.52734-3.4219-0.85547-6.8594-0.85938-10.309v-0.007813-0.003906c0.007812-46.676 47.691-86.523 108.99-86.523zm0 27.848c-4.3711 0-7.918 3.543-7.918 7.918 0 4.3711 3.543 14.828 7.918 14.828 4.3711 0 7.918-10.453 7.918-14.828 0-4.3711-3.543-7.918-7.918-7.918zm-50.262 1.5352c-2.2461 0.007813-4.4492 1.0977-5.793 3.1055-2.1523 3.2109-4.6914 12.633-1.4805 14.785 3.2109 2.1523 10.957-3.7812 13.109-6.9922 2.1523-3.2109 1.293-7.5586-1.918-9.7109-1.2031-0.80859-2.5664-1.1914-3.9141-1.1875zm100.53 0c-1.3477-0.003906-2.7109 0.37891-3.918 1.1875-3.2109 2.1523-4.0703 6.5-1.918 9.7109 2.1523 3.2109 9.8984 9.1445 13.109 6.9922 3.2109-2.1523 0.67188-11.574-1.4805-14.785-1.3438-2.0078-3.5469-3.0938-5.793-3.1055zm-45.055 84.77c-1.793 0-3.5859 0-5.3789 0.007812-40.168 0.37891-80.297 3.5391-119.95 9.875-7.6641 1.9961-12.98 10.711-10.66 18.406 1.7539 6.8398 8.5469 12.207 15.711 11.609 4.9219-0.29297 10.02-1.4414 15.039-1.9844 62.426-8.3125 125.93-9.9531 188.51-2.2383 8.6719 1.0234 17.297 2.4023 25.93 3.6758 6.6289 0.66016 13.355-3.4414 15.762-9.6602 1.9219-4.6602 1.4883-10.008-1.3906-14.168-2.8945-4.2656-7.9531-6.5195-12.969-6.9883-31.281-4.8203-62.82-7.6562-94.457-8.3438-5.3789-0.12891-10.758-0.19141-16.137-0.19531zm0.77344 36.695c-35.914-0.023438-71.801 2.5742-107.3 7.3047-0.38672 0.046874-0.75391 0.085937-1 0.11719-2.668 0.33203-5.082 1.75-6.668 3.918-1.5859 2.1719-2.2031 4.9023-1.707 7.543l2.5039 13.367c1.418 7.5586 4.4961 14.812 9.8164 20.574s13.273 9.7539 22.141 9.7539h152.47c8.8711 0 16.82-3.9922 22.141-9.7539 5.3203-5.7617 8.3945-13.016 9.8125-20.574l2.6289-14.02c0.48828-2.6055-0.10937-5.2969-1.6484-7.457-1.5391-2.1562-3.8906-3.5898-6.5156-3.9766-4.2812-0.625-8.6055-1.2266-12.992-1.7461-27.797-3.4258-55.75-5.0312-83.684-5.0508zm-0.015625 19.477c27.195 0.019532 54.355 1.582 81.312 4.9062 0.019531 0 0.035156 0.003907 0.054688 0.003907 0.8125 0.097656 1.6406 0.23047 2.4531 0.33203l-0.73828 3.9453c-0.86719 4.6328-2.7812 8.5664-4.9844 10.949-2.2031 2.3828-4.3008 3.4883-7.832 3.4883h-152.47c-3.5312 0-5.6289-1.1055-7.832-3.4883-2.2031-2.3828-4.1133-6.3203-4.9844-10.949l-0.55859-2.9805c31.734-3.8828 63.668-6.2266 95.578-6.2031z"/>
</svg>
